<?xml version="1.0" encoding="utf-8"?>
<!-- Generator: Adobe Illustrator 28.2.0, SVG Export Plug-In . SVG Version: 6.00 Build 0)  -->
<svg version="1.1" id="Capa_2_00000050658633095861963450000006886212188018997894_"
	 xmlns="http://www.w3.org/2000/svg" xmlns:xlink="http://www.w3.org/1999/xlink" x="0px" y="0px" viewBox="0 0 2327.7 1652.7"
	 style="enable-background:new 0 0 2327.7 1652.7;" xml:space="preserve">
<style type="text/css">
	.st0{fill:#E4E4E4;}
	.st1{fill:#D1D1D1;}
	.st2{fill:#F4F4F4;}
	.st3{fill:#D6D6D6;}
	.st4{fill:#FFFFFF;}
</style>
<g>
	<path class="st0" d="M2136.3,294v161.5l-453.8,346.8V224.6c43-32.6,102.9-77.5,149.3-112.2c68.3-51.2,164.4-49.2,227.6,8.1
		C2106.6,163.4,2136.3,225.2,2136.3,294z"/>
	<path class="st1" d="M2136.3,455.5v984c0,75.2-61,136.2-136.2,136.2h-317.7V802.3L2136.3,455.5z"/>
	<polygon class="st2" points="1682.4,224.6 1682.4,802.3 1138.1,1218.1 593.7,802.3 593.7,224.6 1138.1,637.4 	"/>
	<path class="st3" d="M593.7,224.6v577.7L139.8,455.5V294c0-68.8,29.7-130.6,76.9-173.6c63.3-57.2,159.3-59.2,227.7-8
		C490.7,147,550.6,192,593.7,224.6z"/>
	<path class="st4" d="M593.7,802.3v773.3H276c-75.2,0-136.2-61-136.2-136.2v-984L593.7,802.3z"/>
</g>
</svg>
