<?xml version="1.0" encoding="utf-8"?>
<!-- Generator: Adobe Illustrator 28.2.0, SVG Export Plug-In . SVG Version: 6.00 Build 0)  -->
<svg version="1.1" id="Capa_1" xmlns="http://www.w3.org/2000/svg" xmlns:xlink="http://www.w3.org/1999/xlink" x="0px" y="0px"
	 viewBox="0 0 1024 1024" style="enable-background:new 0 0 1024 1024;" xml:space="preserve">
<style type="text/css">
	.st0{fill-rule:evenodd;clip-rule:evenodd;fill:#FFFFFF;}
</style>
<path class="st0" d="M1024,512c0,225.9-146.6,417.9-348.8,485.8c-25.6,5.1-35.2-10.9-35.2-24.3c0-17.3,0.6-72.3,0.6-140.8
	c0-48-16-78.7-34.6-94.7c113.9-12.8,233.6-56.3,233.6-252.8c0-56.3-19.8-101.8-52.5-137.6c5.1-12.8,23-65.3-5.1-135.7
	c0,0-42.9-14.1-140.8,52.5c-41-11.5-84.5-17.3-128-17.3c-43.5,0-87,5.8-128,17.3c-97.9-65.9-140.8-52.5-140.8-52.5
	c-28.2,70.4-10.2,122.9-5.1,135.7c-32.6,35.8-52.5,81.9-52.5,137.6c0,195.8,119,240,233,252.8c-14.7,12.8-28.2,35.2-32.6,68.5
	c-29.4,13.4-103,35.2-149.1-42.2c-9.6-15.4-38.4-53.1-78.7-52.5c-42.9,0.6-17.3,24.3,0.6,33.9c21.8,12.2,46.7,57.6,52.5,72.3
	c10.2,28.8,43.5,83.8,172.2,60.2c0,42.9,0.6,83.2,0.6,95.4c0,13.4-9.6,28.8-35.2,24.3C146.6,929.9,0,738.6,0,512
	C0,229.1,229.1,0,512,0S1024,229.1,1024,512z"/>
</svg>
